<svg width="19" height="17" viewBox="0 0 19 17" fill="none" xmlns="http://www.w3.org/2000/svg">
<path d="M12.5229 9.99863C12.1004 9.64295 11.4696 9.69711 11.1139 10.1196C10.7582 10.5421 10.8124 11.173 11.2349 11.5286L12.5229 9.99863ZM16.4868 15.95C16.9093 16.3057 17.5402 16.2515 17.8959 15.829C18.2515 15.4065 18.1974 14.7757 17.7749 14.42L16.4868 15.95ZM7.50228 11.2374C4.50234 11.2374 2.375 9.22131 2.375 7.07916H0.375C0.375 10.6347 3.73422 13.2374 7.50228 13.2374V11.2374ZM2.375 7.07916C2.375 4.93702 4.50234 2.9209 7.50228 2.9209V0.920898C3.73422 0.920898 0.375 3.52365 0.375 7.07916H2.375ZM7.50228 2.9209C10.5022 2.9209 12.6296 4.93702 12.6296 7.07916H14.6296C14.6296 3.52365 11.2703 0.920898 7.50228 0.920898V2.9209ZM12.6296 7.07916C12.6296 9.22131 10.5022 11.2374 7.50228 11.2374V13.2374C11.2703 13.2374 14.6296 10.6347 14.6296 7.07916H12.6296ZM11.2349 11.5286L16.4868 15.95L17.7749 14.42L12.5229 9.99863L11.2349 11.5286Z" fill="white"/>
</svg>
